<svg width="1726" height="1726" viewBox="0 0 1726 1726" fill="none" xmlns="http://www.w3.org/2000/svg">
<mask id="mask0_152_168" style="mask-type:alpha" maskUnits="userSpaceOnUse" x="0" y="0" width="1726" height="1726">
<path d="M1726 1294.5V86.3C1725.94 38.6552 1687.34 0.0561813 1639.7 0H86.3C38.6552 0.0561813 0.0561813 38.6552 0 86.3V1294.5C0.0561813 1342.14 38.6552 1380.74 86.3 1380.8H656.464L608.482 1668.47H489.033C473.133 1668.47 460.267 1681.33 460.267 1697.23C460.267 1713.13 473.133 1726 489.033 1726H1236.97C1252.87 1726 1265.73 1713.13 1265.73 1697.23C1265.73 1681.33 1252.87 1668.47 1236.97 1668.47H1117.52L1069.54 1380.8H1316.3L1566.55 1631.05C1600.26 1664.76 1654.87 1664.76 1688.58 1631.05C1722.24 1597.34 1722.24 1542.72 1688.58 1509.01L1560.37 1380.8H1639.7C1687.34 1380.74 1725.94 1342.14 1726 1294.5ZM1098.7 1081.84L1139.37 1041.16L1261.41 1163.2L1220.73 1203.87L1098.7 1081.84ZM1049.2 1049.98L970.594 1030.32C939.074 1022.51 914.634 997.675 907.442 965.987L872.608 815.074L1023.52 849.909C1055.21 857.101 1080.04 881.541 1087.85 913.061L1107.52 991.663L1049.2 1049.98ZM1165.33 985.764L1143.64 899.071C1130.66 846.594 1089.2 805.86 1036.44 793.836L840.695 748.664C831.031 746.416 820.917 749.338 813.894 756.361C806.871 763.384 803.95 773.497 806.197 783.161L851.37 978.909C856.145 999.585 865.416 1018.97 878.507 1035.6H57.5333V287.667H1668.47V1035.6H1215.17L1165.33 985.764ZM86.3 57.5333H1639.7C1655.6 57.5333 1668.47 70.3997 1668.47 86.3V230.133H57.5333V86.3C57.5333 70.3997 70.3997 57.5333 86.3 57.5333ZM1059.2 1668.47H666.802L714.784 1380.8H1011.22L1059.2 1668.47ZM86.3 1323.27C70.3997 1323.27 57.5333 1310.4 57.5333 1294.5V1093.13H984.64L1043.3 1107.8L1258.77 1323.27H86.3ZM1647.85 1590.37C1636.67 1601.61 1618.41 1601.61 1607.17 1590.37L1261.41 1244.5L1302.08 1203.87L1647.85 1549.69C1659.08 1560.93 1659.08 1579.13 1647.85 1590.37ZM1272.7 1093.13H1668.47V1294.5C1668.47 1310.4 1655.6 1323.27 1639.7 1323.27H1502.83L1272.7 1093.13ZM920.533 1150.67H805.467C789.566 1150.67 776.7 1163.53 776.7 1179.43C776.7 1195.33 789.566 1208.2 805.467 1208.2H920.533C936.434 1208.2 949.3 1195.33 949.3 1179.43C949.3 1163.53 936.434 1150.67 920.533 1150.67Z" fill="#008C87"/>
<path d="M172.598 143.832C172.598 159.732 159.732 172.598 143.832 172.598C127.931 172.598 115.065 159.732 115.065 143.832C115.065 127.931 127.931 115.065 143.832 115.065C159.732 115.065 172.598 127.931 172.598 143.832Z" fill="#008C87"/>
<path d="M287.669 143.832C287.669 159.732 274.802 172.598 258.902 172.598C243.002 172.598 230.135 159.732 230.135 143.832C230.135 127.931 243.002 115.065 258.902 115.065C274.802 115.065 287.669 127.931 287.669 143.832Z" fill="#008C87"/>
<path d="M402.733 143.832C402.733 159.732 389.867 172.598 373.966 172.598C358.066 172.598 345.2 159.732 345.2 143.832C345.2 127.931 358.066 115.065 373.966 115.065C389.867 115.065 402.733 127.931 402.733 143.832Z" fill="#008C87"/>
<path d="M316.432 402.733H373.965C389.865 402.733 402.732 389.867 402.732 373.966C402.732 358.066 389.865 345.2 373.965 345.2H316.432C300.531 345.2 287.665 358.066 287.665 373.966C287.665 389.867 300.531 402.733 316.432 402.733ZM489.032 402.733H546.565C562.465 402.733 575.332 389.867 575.332 373.966C575.332 358.066 562.465 345.2 546.565 345.2H489.032C473.131 345.2 460.265 358.066 460.265 373.966C460.265 389.867 473.131 402.733 489.032 402.733ZM201.365 920.533H172.598V891.766C172.598 875.866 159.732 863 143.832 863C127.931 863 115.065 875.866 115.065 891.766V949.3C115.065 965.2 127.931 978.066 143.832 978.066H201.365C217.265 978.066 230.132 965.2 230.132 949.3C230.132 933.399 217.265 920.533 201.365 920.533ZM373.965 920.533H316.432C300.531 920.533 287.665 933.399 287.665 949.3C287.665 965.2 300.531 978.066 316.432 978.066H373.965C389.865 978.066 402.732 965.2 402.732 949.3C402.732 933.399 389.865 920.533 373.965 920.533ZM546.565 920.533H489.032C473.131 920.533 460.265 933.399 460.265 949.3C460.265 965.2 473.131 978.066 489.032 978.066H546.565C562.465 978.066 575.332 965.2 575.332 949.3C575.332 933.399 562.465 920.533 546.565 920.533ZM719.165 345.2H661.632C645.731 345.2 632.865 358.066 632.865 373.966C632.865 389.867 645.731 402.733 661.632 402.733H690.398V431.5C690.398 447.4 703.265 460.266 719.165 460.266C735.065 460.266 747.932 447.4 747.932 431.5V373.966C747.932 358.066 735.065 345.2 719.165 345.2ZM719.165 517.8C703.265 517.8 690.398 530.666 690.398 546.566V604.1C690.398 620 703.265 632.866 719.165 632.866C735.065 632.866 747.932 620 747.932 604.1V546.566C747.932 530.666 735.065 517.8 719.165 517.8ZM719.165 690.4C703.265 690.4 690.398 703.266 690.398 719.166V776.7C690.398 792.6 703.265 805.466 719.165 805.466C735.065 805.466 747.932 792.6 747.932 776.7V719.166C747.932 703.266 735.065 690.4 719.165 690.4ZM719.165 863C703.265 863 690.398 875.866 690.398 891.766V920.533H661.632C645.731 920.533 632.865 933.399 632.865 949.3C632.865 965.2 645.731 978.066 661.632 978.066H719.165C735.065 978.066 747.932 965.2 747.932 949.3V891.766C747.932 875.866 735.065 863 719.165 863ZM143.832 460.266C159.732 460.266 172.598 447.4 172.598 431.5V402.733H201.365C217.265 402.733 230.132 389.867 230.132 373.966C230.132 358.066 217.265 345.2 201.365 345.2H143.832C127.931 345.2 115.065 358.066 115.065 373.966V431.5C115.065 447.4 127.931 460.266 143.832 460.266ZM143.832 632.866C159.732 632.866 172.598 620 172.598 604.1V546.566C172.598 530.666 159.732 517.8 143.832 517.8C127.931 517.8 115.065 530.666 115.065 546.566V604.1C115.065 620 127.931 632.866 143.832 632.866ZM143.832 805.466C159.732 805.466 172.598 792.6 172.598 776.7V719.166C172.598 703.266 159.732 690.4 143.832 690.4C127.931 690.4 115.065 703.266 115.065 719.166V776.7C115.065 792.6 127.931 805.466 143.832 805.466ZM1006.83 632.866H834.232C818.331 632.866 805.465 645.733 805.465 661.633C805.465 677.533 818.331 690.4 834.232 690.4H1006.83C1022.73 690.4 1035.6 677.533 1035.6 661.633C1035.6 645.733 1022.73 632.866 1006.83 632.866ZM1582.16 632.866H1121.9C1106 632.866 1093.13 645.733 1093.13 661.633C1093.13 677.533 1106 690.4 1121.9 690.4H1582.16C1598.07 690.4 1610.93 677.533 1610.93 661.633C1610.93 645.733 1598.07 632.866 1582.16 632.866ZM1582.16 747.933H1179.43C1163.53 747.933 1150.66 760.799 1150.66 776.7C1150.66 792.6 1163.53 805.466 1179.43 805.466H1582.16C1598.07 805.466 1610.93 792.6 1610.93 776.7C1610.93 760.799 1598.07 747.933 1582.16 747.933ZM1582.16 345.2H834.232C818.331 345.2 805.465 358.066 805.465 373.966V546.566C805.465 562.467 818.331 575.333 834.232 575.333H1582.16C1598.07 575.333 1610.93 562.467 1610.93 546.566V373.966C1610.93 358.066 1598.07 345.2 1582.16 345.2ZM1553.4 517.8H862.998V402.733H1553.4V517.8ZM632.865 489.033C632.865 473.133 619.999 460.266 604.098 460.266H258.898C242.998 460.266 230.132 473.133 230.132 489.033V834.233C230.132 850.133 242.998 863 258.898 863H604.098C619.999 863 632.865 850.133 632.865 834.233V489.033ZM575.332 805.466H287.665V517.8H575.332V805.466Z" fill="#008C87"/>
</mask>
<g mask="url(#mask0_152_168)">
<rect x="-157" y="-119" width="2143" height="2054" fill="#FFD43B"/>
</g>
</svg>
