<svg width="512" height="512" viewBox="0 0 512 512" fill="none" xmlns="http://www.w3.org/2000/svg">
<path d="M320 368H192C185.635 368 179.53 370.529 175.029 375.03C170.529 379.53 168 385.635 168 392C168 398.365 170.529 404.47 175.029 408.971C179.53 413.471 185.635 416 192 416H320C326.365 416 332.47 413.471 336.971 408.971C341.471 404.47 344 398.365 344 392C344 385.635 341.471 379.53 336.971 375.03C332.47 370.529 326.365 368 320 368ZM472 232H463.696C462.176 196.044 450.595 161.236 430.27 131.536C409.946 101.837 381.694 78.4372 348.728 64H393.472C395.359 69.3378 399.073 73.8365 403.956 76.7011C408.839 79.5657 414.578 80.6118 420.158 79.6544C425.738 78.697 430.8 75.7979 434.449 71.4693C438.098 67.1408 440.099 61.6615 440.099 56C440.099 50.3386 438.098 44.8593 434.449 40.5308C430.8 36.2022 425.738 33.3031 420.158 32.3457C414.578 31.3883 408.839 32.4344 403.956 35.299C399.073 38.1636 395.359 42.6623 393.472 48H280V40C280 37.8783 279.157 35.8435 277.657 34.3432C276.157 32.8429 274.122 32 272 32H240C237.878 32 235.843 32.8429 234.343 34.3432C232.843 35.8435 232 37.8783 232 40V48H118.528C116.641 42.6623 112.927 38.1636 108.044 35.299C103.161 32.4344 97.4221 31.3883 91.8421 32.3457C86.2622 33.3031 81.2003 36.2022 77.5512 40.5308C73.902 44.8593 71.9006 50.3386 71.9006 56C71.9006 61.6615 73.902 67.1408 77.5512 71.4693C81.2003 75.7979 86.2622 78.697 91.8421 79.6544C97.4221 80.6118 103.161 79.5657 108.044 76.7011C112.927 73.8365 116.641 69.3378 118.528 64H163.416C130.407 78.405 102.106 101.79 81.7363 131.491C61.3667 161.193 49.7468 196.018 48.2 232H40C37.8783 232 35.8434 232.843 34.3431 234.343C32.8429 235.843 32 237.878 32 240V272C32 274.122 32.8429 276.157 34.3431 277.657C35.8434 279.157 37.8783 280 40 280H72C74.1217 280 76.1566 279.157 77.6569 277.657C79.1571 276.157 80 274.122 80 272V240C80 237.878 79.1571 235.843 77.6569 234.343C76.1566 232.843 74.1217 232 72 232H64.2C66.2664 188.182 84.6144 146.713 115.651 115.713C146.689 84.7127 188.179 66.4142 232 64.4001V72C232 74.1218 232.843 76.1566 234.343 77.6569C235.843 79.1572 237.878 80 240 80H272C274.122 80 276.157 79.1572 277.657 77.6569C279.157 76.1566 280 74.1218 280 72V64.4001C323.821 66.4142 365.311 84.7127 396.349 115.713C427.386 146.713 445.734 188.182 447.8 232H440C437.878 232 435.843 232.843 434.343 234.343C432.843 235.843 432 237.878 432 240V272C432 274.122 432.843 276.157 434.343 277.657C435.843 279.157 437.878 280 440 280H472C474.122 280 476.157 279.157 477.657 277.657C479.157 276.157 480 274.122 480 272V240C480 237.878 479.157 235.843 477.657 234.343C476.157 232.843 474.122 232 472 232ZM192 472C192 474.122 192.843 476.157 194.343 477.657C195.843 479.157 197.878 480 200 480H312C314.122 480 316.157 479.157 317.657 477.657C319.157 476.157 320 474.122 320 472V432H192V472Z" fill="#FFD43B"/>
<path d="M256 288C260.418 288 264 284.418 264 280C264 275.582 260.418 272 256 272C251.582 272 248 275.582 248 280C248 284.418 251.582 288 256 288Z" fill="#FFD43B"/>
<path d="M168.24 281.944L185.904 352.616C187.917 352.253 189.955 352.048 192 352H320C322.045 352.048 324.083 352.253 326.096 352.616L343.76 281.944C344.021 280.901 344.07 279.815 343.902 278.753C343.734 277.69 343.354 276.672 342.784 275.76L264 149.704V257.472C269.338 259.359 273.836 263.073 276.701 267.956C279.566 272.839 280.612 278.578 279.654 284.158C278.697 289.738 275.798 294.8 271.469 298.449C267.141 302.098 261.661 304.1 256 304.1C250.338 304.1 244.859 302.098 240.531 298.449C236.202 294.8 233.303 289.738 232.345 284.158C231.388 278.578 232.434 272.839 235.299 267.956C238.163 263.073 242.662 259.359 248 257.472V149.712L169.216 275.76C168.646 276.672 168.266 277.69 168.098 278.753C167.93 279.815 167.978 280.901 168.24 281.944Z" fill="#FFD43B"/>
</svg>
